<svg xmlns="http://www.w3.org/2000/svg" version="1.1" xmlns:xlink="http://www.w3.org/1999/xlink" xmlns:svgjs="http://svgjs.com/svgjs" width="1440" height="560" preserveAspectRatio="none" viewBox="0 0 1440 560"><g mask="url(&quot;#SvgjsMask1790&quot;)" fill="none"><rect width="1440" height="560" x="0" y="0" fill="rgba(247, 251, 255, 1)"></rect><path d="M678.72 202.54L703.33 202.54L703.33 223.42L678.72 223.42z" stroke="rgba(148, 143, 236, 1)"></path><path d="M907.28 550L925.93 550L925.93 568.65L907.28 568.65z" fill="rgba(148, 143, 236, 1)"></path><path d="M472.29 297.06L485.62 297.06L485.62 310.39L472.29 310.39z" stroke="rgba(148, 143, 236, 1)"></path><path d="M1300.42 365.13L1353.14 365.13L1353.14 368.35L1300.42 368.35z" fill="rgba(148, 143, 236, 1)"></path><path d="M564.95 349.02a22.06 22.06 0 1 0 38.05-22.32z" fill="rgba(227, 225, 248, 1)"></path><path d="M1057.9 213.7a40.21 40.21 0 1 0 66.93-44.58z" stroke="rgba(227, 225, 248, 1)"></path><path d="M1285.4 455.63 a45.69 45.69 0 1 0 91.38 0 a45.69 45.69 0 1 0 -91.38 0z" stroke="rgba(227, 225, 248, 1)"></path><path d="M544.17 490.48 a14.24 14.24 0 1 0 28.48 0 a14.24 14.24 0 1 0 -28.48 0z" fill="rgba(210, 208, 244, 1)"></path><path d="M82.81 528.96 a43.67 43.67 0 1 0 87.34 0 a43.67 43.67 0 1 0 -87.34 0z" fill="rgba(210, 208, 244, 1)"></path><path d="M126.94 266.05 a46.47 46.47 0 1 0 92.94 0 a46.47 46.47 0 1 0 -92.94 0z" stroke="rgba(210, 208, 244, 1)"></path><path d="M220.97 145.07L266.72 145.07L266.72 190.82L220.97 190.82z" stroke="rgba(210, 208, 244, 1)"></path><path d="M598.54 419.04L650.79 419.04L650.79 436.57L598.54 436.57z" stroke="rgba(148, 143, 236, 1)"></path><path d="M585.78 424.01a31.13 31.13 0 1 0 62.24-1.46z" stroke="rgba(227, 225, 248, 1)"></path><path d="M1030.85 408.68L1049.27 408.68L1049.27 434.96L1030.85 434.96z" stroke="rgba(227, 225, 248, 1)"></path><path d="M238.79 419.55 a22.41 22.41 0 1 0 44.82 0 a22.41 22.41 0 1 0 -44.82 0z" stroke="rgba(227, 225, 248, 1)"></path><path d="M1007.34 359.28L1020.18 359.28L1020.18 384.12L1007.34 384.12z" fill="rgba(210, 208, 244, 1)"></path><path d="M257.46 68.77L279.99 68.77L279.99 122.33L257.46 122.33z" stroke="rgba(210, 208, 244, 1)"></path><path d="M1417.47 475.83a38.46 38.46 0 1 0-36.99-67.44z" stroke="rgba(148, 143, 236, 1)"></path><path d="M702.16 302.08 a30.1 30.1 0 1 0 60.2 0 a30.1 30.1 0 1 0 -60.2 0z" stroke="rgba(210, 208, 244, 1)"></path><path d="M915.8 252.14L939.59 252.14L939.59 286.48L915.8 286.48z" fill="rgba(227, 225, 248, 1)"></path><path d="M227.89 7.41L266.16 7.41L266.16 45.68L227.89 45.68z" fill="rgba(148, 143, 236, 1)"></path><path d="M1095.45 193.81L1141.06 193.81L1141.06 239.42L1095.45 239.42z" fill="rgba(210, 208, 244, 1)"></path><path d="M1236.19 129.97 a20.21 20.21 0 1 0 40.42 0 a20.21 20.21 0 1 0 -40.42 0z" fill="rgba(148, 143, 236, 1)"></path><path d="M225.68 152.71L256.42 152.71L256.42 183.45L225.68 183.45z" stroke="rgba(210, 208, 244, 1)"></path><path d="M269.8 90.62L291.02 90.62L291.02 111.84L269.8 111.84z" stroke="rgba(227, 225, 248, 1)"></path><path d="M1417.69 36.62a13.75 13.75 0 1 0-27.37-2.63z" fill="rgba(148, 143, 236, 1)"></path><path d="M732.8 554.78L770.33 554.78L770.33 559.47L732.8 559.47z" fill="rgba(210, 208, 244, 1)"></path><path d="M42.09 440.27a17.05 17.05 0 1 0 16.17 30.02z" fill="rgba(227, 225, 248, 1)"></path><path d="M857.88 358.6a15.25 15.25 0 1 0 9.45 29z" fill="rgba(148, 143, 236, 1)"></path><path d="M735.64 363.32a50.31 50.31 0 1 0 88.67 47.56z" stroke="rgba(210, 208, 244, 1)"></path><path d="M0.37 137.8L17.32 137.8L17.32 143.93L0.37 143.93z" fill="rgba(210, 208, 244, 1)"></path><path d="M759.26 54.34a30.95 30.95 0 1 0-43.23-44.3z" stroke="rgba(227, 225, 248, 1)"></path><path d="M359.6 147.81a6.97 6.97 0 1 0-7.9 11.49z" fill="rgba(148, 143, 236, 1)"></path></g><defs><mask id="SvgjsMask1790"><rect width="1440" height="560" fill="#ffffff"></rect></mask></defs></svg>